{"title":"A Very Harold And Kumar Christmas 2011 BRRip XviD Ac3 Feel-Free","uid":6970680,"size":1330019543,"categoryP":"video","categoryS":"movies","magnet":"?xt=urn:btih:a3c294c5e535bb8fdd686af483be41c0e195ab9a&amp;dn=A+Very+Harold+And+Kumar+Christmas+2011+BRRip+XviD+Ac3+Feel-Free&amp;tr=udp%3A%2F%2Ftracker.openbittorrent.com%3A80&amp;tr=udp%3A%2F%2Fopen.demonii.com%3A1337&amp;tr=udp%3A%2F%2Ftracker.coppersurfer.tk%3A6969&amp;tr=udp%3A%2F%2Fexodus.desync.com%3A6969","seeders":1,"leechers":0,"uploader":"Bif442","files":9,"time":1327080459,"description":"Genre:Comedy\nLanguage:English\nIMDb: &lt;a href=&quot; http://www.imdb.com/title/tt1268799/&quot; rel=&quot;nofollow&quot; target=&quot;_NEW&quot;&gt; http://www.imdb.com/title/tt1268799/&lt;/a&gt;\nSource:720p BluRay x264-SPARKS Thanks!\nEncoder:Tony\n\nFormat : AVI\nFormat/Info : Audio Video Interleave\nFile size : 1.24 GiB\nDuration : 1h 29mn\nOverall bit rate : 1 976 Kbps\n\nVideo\nID : 0\nFormat : MPEG-4 Visual\nFormat profile : Advanced Simple@L5\nFormat settings, BVOP : 1\nFormat settings, QPel : No\nFormat settings, GMC : No warppoints\nFormat settings, Matrix : Default (H.263)\nCodec ID : XVID\nCodec ID/Hint : XviD\nDuration : 1h 29mn\nBit rate : 1 518 Kbps\nWidth : 624 pixels\nHeight : 264 pixels\nDisplay aspect ratio : 2.35:1\nFrame rate : 23.976 fps\nColor space : YUV\nChroma subsampling : 4:2:0\nBit depth : 8 bits\nScan type : Progressive\nCompression mode : Lossy\nBits/(Pixel*Frame) : 0.384\nStream size : 974 MiB (77%)\nWriting library : XviD 1.2.1 (UTC 2008-12-04)\n\nAudio\nID : 1\nFormat : AC-3\nFormat/Info : Audio Coding 3\nMode extension : CM (complete main)\nCodec ID : 2000\nDuration : 1h 29mn\nBit rate mode : Constant\nBit rate : 448 Kbps\nChannel(s) : 6 channels\nChannel positions : Front: L C R, Side: L R, LFE\nSampling rate : 48.0 KHz\nBit depth : 16 bits\nCompression mode : Lossy\nStream size : 287 MiB (23%)\nAlignment : Aligned on interleaves\nInterleave, duration : 42 ms (1.00 video frame)\nInterleave, preload duration : 512 ms\n\n\nPlot:\nSix years after their Guantanamo Bay adventure, stoner buds Harold Lee and Kumar Patel cause a holiday fracas by inadvertently burning down Harold's father-in-law's prize Christmas tree.","torrent":{"xt":"urn:btih:a3c294c5e535bb8fdd686af483be41c0e195ab9a","amp;dn":"A+Very+Harold+And+Kumar+Christmas+2011+BRRip+XviD+Ac3+Feel-Free","amp;tr":["udp%3A%2F%2Ftracker.openbittorrent.com%3A80","udp%3A%2F%2Fopen.demonii.com%3A1337","udp%3A%2F%2Ftracker.coppersurfer.tk%3A6969","udp%3A%2F%2Fexodus.desync.com%3A6969"],"infoHash":"a3c294c5e535bb8fdd686af483be41c0e195ab9a","infoHashBuffer":{"type":"Buffer","data":[163,194,148,197,229,53,187,143,221,104,106,244,131,190,65,192,225,149,171,154]},"announce":[],"urlList":[]}}